# xmcd
#
# Track frame offsets:
#	150
#	12940
#	29656
#	39844
#	51414
#	62325
#	75840
#	85597
#	98446
#	111148
#	122249
#	132684
#	145864
#	156762
#	168802
#
# Disc length: 2422 seconds
#
# Revision: 1
# Processed by: cddbd v1.5.2PL0 Copyright (c) Steve Scherf et al.
# Submitted via: audiograbber 1.83.01
#
DISCID=b309740f
DTITLE=Various Artist - Best of Country - CD2
DYEAR=2005
DGENRE=Country
TTITLE0=Willie Nelson - Home is where you´re happy
TTITLE1=Rex Allen jr. - Memory Train
TTITLE2=Waylon Jennings - White Lightning
TTITLE3=Johnny Cash - Peace in the Valey-live
TTITLE4=Don Gibson - Oh Lonesome me
TTITLE5=Hank Williams - Jambalaya
TTITLE6=Dave Dudley - Six day on the Road
TTITLE7=Frankie Laine - High Noon
TTITLE8=Ray Price - Let it rain, let her cry
TTITLE9=Roger Miller - King of the road
TTITLE10=Willie Nelson - No tomorrow in sight
TTITLE11=Johnny Cash - Wanted man
TTITLE12=Ricky Nelson - Travelin man
TTITLE13=Ernest Tube - Walking the floor over you
TTITLE14=The Statler Brothers - Do you remember these
EXTD=
EXTT0=
EXTT1=
EXTT2=
EXTT3=
EXTT4=
EXTT5=
EXTT6=
EXTT7=
EXTT8=
EXTT9=
EXTT10=
EXTT11=
EXTT12=
EXTT13=
EXTT14=
PLAYORDER=
